<svg width="50" height="50" xmlns="http://www.w3.org/2000/svg">

 <g>
  <title>Layer 1</title>
  <g stroke="null">
   <path stroke="null" d="m50.00299,10.24827c-1.80071,0.79759 -3.73753,1.32978 -5.78051,1.58158c2.07701,-1.23314 3.67492,-3.1999 4.42487,-5.52327c-1.94362,1.13922 -4.09685,1.97629 -6.38755,2.41728c-1.82929,-1.93954 -4.43849,-3.14274 -7.32942,-3.14274c-5.55321,0 -10.05431,4.46162 -10.05431,9.96311c0,0.77854 0.09119,1.53666 0.26269,2.27301c-8.35432,-0.41921 -15.76404,-4.39085 -20.7211,-10.41771c-0.87109,1.47269 -1.36108,3.19718 -1.36108,5.01694c0,3.45851 1.77077,6.50325 4.47115,8.29715c-1.64827,-0.05036 -3.1999,-0.50904 -4.55826,-1.24403c0,0.02994 0,0.07486 0,0.11705c0,4.8332 3.46667,8.85792 8.06168,9.77392c-0.83979,0.23002 -1.72721,0.35796 -2.64186,0.35796c-0.64924,0 -1.28214,-0.0735 -1.89462,-0.18375c1.27942,3.94986 4.99108,6.83671 9.38874,6.92246c-3.44081,2.66772 -7.77449,4.26563 -12.48656,4.26563c-0.81393,0 -1.61016,-0.04628 -2.39686,-0.14155c4.4521,2.8188 9.73853,4.47115 15.41288,4.47115c18.49029,0 28.60584,-15.18422 28.60584,-28.35676c0,-0.43146 -0.01361,-0.86156 -0.03403,-1.28622c1.97357,-1.39375 3.67492,-3.15226 5.01831,-5.16122" fill="#f38181"/>
  </g>
 </g>
</svg>